<?xml version="1.0" standalone="no"?><!DOCTYPE svg PUBLIC "-//W3C//DTD SVG 1.1//EN" "http://www.w3.org/Graphics/SVG/1.1/DTD/svg11.dtd"><svg t="1712821294311" class="icon" viewBox="0 0 1024 1024" version="1.1" xmlns="http://www.w3.org/2000/svg" p-id="2409" xmlns:xlink="http://www.w3.org/1999/xlink" width="200" height="200"><path d="M930.878626 793.514452a46.543931 46.543931 0 0 1 93.087862 0V930.912137a93.087863 93.087863 0 0 1-93.087862 93.087863h-279.263588a93.087863 93.087863 0 0 1-93.087863-93.087863v-279.263587a93.087863 93.087863 0 0 1 93.087863-93.087863h279.263588a93.087863 93.087863 0 0 1 93.087862 93.087863 46.543931 46.543931 0 0 1-93.087862 0h-279.263588v279.263587h279.263588v-137.397685zM605.071107 279.297099a46.543931 46.543931 0 0 1 0-93.087862h325.807519a46.543931 46.543931 0 0 1 0 93.087862h-325.807519z" fill="#313645" p-id="2410"></path><path d="M758.340273 126.027934a46.543931 46.543931 0 1 1 65.813118-65.813119l139.631794 139.631794a46.543931 46.543931 0 0 1 0 65.813118l-139.631794 139.631794a46.543931 46.543931 0 0 1-65.813118-65.813118L865.065507 232.753168l-106.725234-106.725234zM418.895382 837.824275a46.543931 46.543931 0 0 0 0-93.087863H93.087863a46.543931 46.543931 0 0 0 0 93.087863h325.807519z" fill="#313645" p-id="2411"></path><path d="M219.082285 684.555109a46.543931 46.543931 0 0 0-65.813119-65.813119l-139.631794 139.631794a46.543931 46.543931 0 0 0 0 65.813119l139.631794 139.631794a46.543931 46.543931 0 1 0 65.813119-65.813119L112.35705 791.280344l106.725235-106.725235zM367.929777 197.752132a46.543931 46.543931 0 1 1 90.155595-23.225422A232.719656 232.719656 0 1 1 349.172573 31.217946 46.543931 46.543931 0 0 1 302.535553 111.785491a139.631794 139.631794 0 1 0 65.394224 85.966641z" fill="#313645" p-id="2412"></path></svg>